<?xml version="1.0" encoding="utf-8"?>
<!-- Generator: Adobe Illustrator 19.0.0, SVG Export Plug-In . SVG Version: 6.00 Build 0)  -->
<svg version="1.1" id="Camada_1" xmlns="http://www.w3.org/2000/svg" xmlns:xlink="http://www.w3.org/1999/xlink" x="0px" y="0px"
	 viewBox="0 0 828.8 397" style="enable-background:new 0 0 828.8 397;" xml:space="preserve">
<style type="text/css">
	.st0{fill-rule:evenodd;clip-rule:evenodd;fill:#30546E;}
	.st1{fill:#30546E;}
</style>
<g>
	<g>
		<polygon class="st0" points="536.4,22.6 615.8,22.6 804.3,278.1 751.4,278.1 588.3,63.4 588.1,278 588.1,278 588.1,278.1 
			536.4,278.1 		"/>
		<path class="st1" d="M74.2,238.4h41.1c38.2,0,64.7-6.3,79.4-18.9c14.8-12.7,22.2-35.3,22.2-67.9c0-31.9-7.5-54.4-22.7-67.7
			c-15.1-13.3-40.8-19.9-77.1-19.9h-43V238.4L74.2,238.4z M25,279.2V23.1h99.5c25.3,0,44,1.1,56.4,3.4c12.3,2.3,23.1,6,32.3,11.2
			c17.7,10.4,31,25.1,39.9,44c9,18.9,13.4,42.1,13.4,69.7c0,29-5.5,53.4-16.6,73.1c-11,19.8-27.4,34.4-48.9,44
			c-8.4,3.9-18.8,6.6-31.4,8.2c-12.6,1.6-32.7,2.4-60.4,2.4H25z"/>
		<polygon class="st1" points="278.6,279.2 278.6,23.1 356.6,23.1 469.9,239.5 469.8,23.1 519.7,23.1 519.7,279.2 441.3,279.2 
			325.9,63.6 326.2,279.2 		"/>
	</g>
	<g>
		<path class="st1" d="M35.1,363.2h8.9c4.9,0,8.5-0.3,11-1c2.4-0.7,4.6-1.8,6.4-3.3c2.5-2.1,4.3-4.8,5.5-8c1.2-3.2,1.8-6.9,1.8-11.1
			c0-4.2-0.6-7.9-1.8-11.1c-1.2-3.2-3.1-5.8-5.5-8c-1.8-1.6-4-2.7-6.6-3.3c-2.6-0.7-6.6-1-12-1h-3.8h-3.8V363.2L35.1,363.2z
			 M24.5,372.9v-66.2h14.2c9.3,0,15.8,0.5,19.6,1.4c3.8,1,7.1,2.5,9.9,4.8c3.8,2.9,6.6,6.7,8.5,11.3c1.9,4.6,2.9,9.8,2.9,15.7
			c0,5.9-1,11.1-2.9,15.6c-1.9,4.5-4.8,8.3-8.5,11.2c-2.8,2.2-6.1,3.8-9.7,4.8c-3.6,0.9-9.3,1.4-16.9,1.4h-2.8H24.5L24.5,372.9z
			 M133.9,372.9v-66.2h36.3v9.1h-25.7v16.6h25.7v9.4h-25.7v21.4h25.7v9.6H133.9z"/>
		<path class="st1" d="M278.7,374.5l-28.6-67.8H261l14.4,34.7c0.8,2,1.5,3.9,2.1,5.6c0.6,1.7,1,3.3,1.3,4.9c0.4-1.6,0.9-3.3,1.4-5.1
			c0.6-1.8,1.3-3.6,2.1-5.4l14.3-34.7h10.8L278.7,374.5L278.7,374.5z M355.3,371.9v-65.2H391v9h-25.3v16.3H391v9.3h-25.3v21.1H391
			v9.5H355.3L355.3,371.9z M444.5,371.9v-67.8l40.7,39.9c1.1,1.1,2.2,2.3,3.4,3.6c1.1,1.3,2.3,2.7,3.6,4.3v-45.2h9.6v67.8
			l-41.5-40.6c-1.1-1.1-2.2-2.3-3.2-3.5c-1-1.2-2-2.5-3-3.8v45.3H444.5L444.5,371.9z M568.4,362.4h8.8c4.8,0,8.4-0.3,10.8-1
			c2.4-0.7,4.5-1.8,6.3-3.3c2.4-2.1,4.2-4.7,5.4-7.9c1.2-3.1,1.8-6.8,1.8-10.9c0-4.2-0.6-7.8-1.8-10.9c-1.2-3.1-3-5.7-5.4-7.9
			c-1.8-1.5-4-2.6-6.5-3.3c-2.5-0.7-6.5-1-11.8-1h-3.8h-3.8V362.4L568.4,362.4z M558,371.9v-65.2h14c9.1,0,15.6,0.5,19.3,1.4
			c3.7,0.9,7,2.5,9.8,4.7c3.7,2.9,6.5,6.6,8.4,11.1c1.9,4.5,2.9,9.7,2.9,15.4c0,5.8-1,10.9-2.9,15.4c-1.9,4.5-4.7,8.2-8.4,11.1
			c-2.8,2.2-6,3.8-9.6,4.7c-3.6,0.9-9.1,1.4-16.7,1.4H572H558L558,371.9z M677.8,346.3h17.8l-6.6-14.9c-0.4-1-0.8-2.1-1.2-3.3
			c-0.4-1.2-0.8-2.6-1.2-4.1c-0.4,1.4-0.7,2.8-1.1,4c-0.4,1.2-0.8,2.4-1.2,3.4L677.8,346.3L677.8,346.3z M706.6,371.9l-7.3-16.8
			h-25.4l-7.4,16.8h-10.9l31-67.8l31,67.8H706.6L706.6,371.9z M761.4,358.9l8.3-3.9c0.8,2.9,2.2,5.1,4.3,6.6
			c2.1,1.5,4.8,2.3,8.1,2.3c3.1,0,5.6-0.9,7.4-2.6c1.8-1.8,2.7-4.1,2.7-7c0-3.8-3.1-7.3-9.4-10.3c-0.9-0.4-1.5-0.8-2-1
			c-7-3.5-11.8-6.7-14.1-9.5c-2.3-2.8-3.5-6.3-3.5-10.4c0-5.3,1.8-9.6,5.3-12.9c3.5-3.3,8.2-4.9,13.9-4.9c4.7,0,8.7,0.9,11.9,2.8
			c3.2,1.9,5.4,4.5,6.6,8l-8.1,4.3c-1.3-2.1-2.7-3.5-4.2-4.5c-1.5-1-3.3-1.4-5.3-1.4c-2.8,0-5,0.7-6.7,2.2c-1.7,1.5-2.5,3.5-2.5,6
			c0,3.9,3.6,7.6,10.9,10.9c0.6,0.3,1,0.5,1.3,0.6c6.3,3,10.7,5.9,13.1,8.7c2.4,2.8,3.5,6.4,3.5,10.6c0,6.2-1.9,11.1-5.7,14.7
			c-3.8,3.6-9,5.5-15.5,5.5c-5.5,0-9.9-1.3-13.4-3.8C764.8,367.3,762.5,363.6,761.4,358.9z"/>
	</g>
</g>
</svg>
